<?xml version="1.0" encoding="UTF-8"?>
<svg width="18px" height="18px" viewBox="0 0 18 18" version="1.1" xmlns="http://www.w3.org/2000/svg" xmlns:xlink="http://www.w3.org/1999/xlink">
    <!-- Generator: Sketch 47.1 (45422) - http://www.bohemiancoding.com/sketch -->
    <title>concept icon</title>
    <desc>Created with Sketch.</desc>
    <defs></defs>
    <g id="Page-1" stroke="none" stroke-width="1" fill="none" fill-rule="evenodd">
        <g id="concept-icon" fill="#4B4B4B">
            <path d="M11.5000026,4.29166251 C12.359378,4.29166251 12.4166697,4.5876696 12.4166697,4.74999607 C12.4166697,4.91232253 12.4166697,5.20832962 11.5000026,5.20832962 C9.95312688,5.20832962 7.48958404,6.01041333 6.68750033,6.12499672 C6.22916678,6.19183703 6,6.01041333 6,5.78124656 C6,5.43749639 6.24826401,5.29426716 6.68750033,5.20832962 C7.51822989,5.05555177 10.1440992,4.29166251 11.5000026,4.29166251 Z M11.5000026,5.91492718 C12.359378,5.91492718 12.4166697,6.21093426 12.4166697,6.37326073 C12.4166697,6.5355872 12.4166697,6.83159428 11.5000026,6.83159428 C9.95312688,6.83159428 7.48958404,7.633678 6.68750033,7.74826138 C6.22916678,7.81510169 6,7.633678 6,7.40451122 C6,7.06076106 6.24826401,6.91753182 6.68750033,6.83159428 C7.51822989,6.67881643 10.1440992,5.91492718 11.5000026,5.91492718 Z M9.89583519,2.91666186 C10.5833355,2.91666186 10.5833355,3.22221756 10.5833355,3.36544679 C10.5833355,3.45138434 10.5833355,3.59461357 10.4210091,3.70919696 C10.1822937,3.73784281 9.94357827,3.78558588 9.72396011,3.84287758 C8.81684162,4.06249574 6.92621572,4.62586406 6.34375016,4.62586406 C6,4.62586406 6,4.32985698 6,4.32985698 C6,4.12933605 6.11458339,3.83332896 6.6684031,3.69964834 C7.19357696,3.6137108 8.97916809,3.1267314 9.72396011,2.94530771 C9.76215457,2.93575909 9.85764073,2.92621047 9.89583519,2.91666186 Z M11.0416691,10.2499987 L7.37500066,10.2499987 C6.9166671,10.2499987 6.9166671,10.7083322 6.9166671,10.7083322 L6.9166671,11.3958326 C6.9166671,11.8541661 7.83333421,12.0833329 7.83333421,12.5416664 L7.83333421,13.0381945 C7.83333421,13.1623265 7.88107729,13.2769099 7.96701483,13.3628474 L8.38715392,13.7829865 C8.47309146,13.868924 8.58767485,13.9166671 8.71180685,13.9166671 L9.70486288,13.9166671 C9.82899488,13.9166671 9.94357827,13.868924 10.0295158,13.7829865 L10.4496549,13.3628474 C10.5355924,13.2769099 10.5833355,13.1623265 10.5833355,13.0381945 L10.5833355,12.5416664 C10.5833355,12.0833329 11.5000026,11.8541661 11.5000026,11.3958326 L11.5000026,10.7083322 C11.5000026,10.7083322 11.5000026,10.2499987 11.0416691,10.2499987 Z M12.1779543,7.54774046 C12.4166697,7.61458077 12.4166697,7.86284477 12.4166697,7.95833093 C12.4166697,8.07291432 12.3020863,8.41666448 11.5000026,8.41666448 C10.5833355,8.41666448 10.5833355,9.10416481 10.5833355,9.10416481 L10.5833355,9.79166514 L9.66666842,9.79166514 L9.66666842,9.10416481 C9.66666842,9.02777588 9.66666842,7.95833093 10.2395854,7.72916415 C10.3828146,7.69096969 10.4783007,7.67187246 10.5833355,7.64322661 C10.7552106,7.62412938 11.3854192,7.60503215 11.5572943,7.60503215 C11.7960097,7.60503215 12.0060793,7.58593492 12.1779543,7.54774046 Z M8.40625115,8.05381709 C8.02430652,8.20659494 7.67100774,8.35937279 7.31770896,8.41666448 L7.37500066,8.41666448 C7.8906259,8.41666448 7.83333421,9.10416481 7.83333421,9.10416481 L7.83333421,9.79166514 L8.75000131,9.79166514 L8.75000131,9.10416481 C8.75000131,9.04687312 8.75000131,8.41666448 8.5017373,8.01562262 C8.47309146,8.02517124 8.43489699,8.04426847 8.40625115,8.05381709 Z" id=""></path>
        </g>
    </g>
</svg>