<?xml version="1.0" encoding="UTF-8"?>
<svg width="18px" height="18px" viewBox="0 0 18 18" version="1.1" xmlns="http://www.w3.org/2000/svg" xmlns:xlink="http://www.w3.org/1999/xlink">
    <!-- Generator: Sketch 47.1 (45422) - http://www.bohemiancoding.com/sketch -->
    <title>Artboard Copy 31</title>
    <desc>Created with Sketch.</desc>
    <defs></defs>
    <g id="Page-1" stroke="none" stroke-width="1" fill="none" fill-rule="evenodd">
        <g id="Artboard-Copy-31" fill="#4B4B4B">
            <path d="M5,2 L13,2 C13.5522847,2 14,2.44771525 14,3 L14,14 C14,14.5522847 13.5522847,15 13,15 L5,15 C4.44771525,15 4,14.5522847 4,14 L4,3 L4,3 C4,2.44771525 4.44771525,2 5,2 L5,2 Z M10,9 L10,12 L13,12 L13,9 L10,9 Z M5,3 L5,8 L9,8 L9,3 L5,3 Z M10,7 L10,8 L13,8 L13,7 L10,7 Z M5,11 L5,12 L9,12 L9,11 L5,11 Z M5,9 L5,10 L9,10 L9,9 L5,9 Z M5,13 L5,14 L13,14 L13,13 L5,13 Z M10,5 L10,6 L13,6 L13,5 L10,5 Z M10,3 L10,4 L13,4 L13,3 L10,3 Z" id="Combined-Shape"></path>
        </g>
    </g>
</svg>