<svg xmlns="http://www.w3.org/2000/svg"  id="spectrum-icon-18-TextSpaceBefore" viewBox="0 0 36 36">
  <g id="topichead-icon" fill="#4B4B4B" >
		<rect height="4" rx="1" ry="1" width="22" x="12" y="24"/>
		<rect height="4" rx="1" ry="1" width="22" x="12" y="18"/>
		<rect height="4" rx="1" ry="1" width="22" x="12" y="30"/>
		<path d="M2 2.672a.5.5 0 0 1 .866-.341L8 8l-5.134 5.669A.5.5 0 0 1 2 13.328zM33 2H13a1 1 0 0 0-1 1v10a1 1 0 0 0 1 1h20a1 1 0 0 0 1-1V3a1 1 0 0 0-1-1zm-1 10H14V4h18z"/>
	</g>
</svg>
