<?xml version="1.0" encoding="UTF-8"?>
<svg width="18px" height="18px" viewBox="0 0 18 18" version="1.1" xmlns="http://www.w3.org/2000/svg" xmlns:xlink="http://www.w3.org/1999/xlink">
    <!-- Generator: Sketch 47.1 (45422) - http://www.bohemiancoding.com/sketch -->
    <title>Artboard Copy 19</title>
    <desc>Created with Sketch.</desc>
    <defs></defs>
    <g id="Page-1" stroke="none" stroke-width="1" fill="none" fill-rule="evenodd">
        <g id="Artboard-Copy-19" fill="#4B4B4B">
            <rect id="Rectangle" x="3" y="4" width="12" height="1" rx="0.5"></rect>
            <rect id="Rectangle" x="3" y="12" width="12" height="1" rx="0.5"></rect>
            <rect id="Rectangle" x="3" y="10" width="4" height="1" rx="0.5"></rect>
            <rect id="Rectangle" x="3" y="8" width="4" height="1" rx="0.5"></rect>
            <rect id="Rectangle" x="3" y="6" width="4" height="1" rx="0.5"></rect>
            <path d="M8.99951412,8.82940044 L9.94255852,7.88635604 C10.0216161,7.80729843 10.0216161,7.67741806 9.94255852,7.59836045 L9.68279779,7.34424669 C9.60374017,7.26518907 9.47950678,7.26518907 9.40044917,7.34424669 L8.05646972,8.68257916 C8.01694092,8.72210796 8,8.77857769 8,8.82940044 C8,8.88022319 8.01694092,8.93669292 8.05646972,8.97622172 L9.40044917,10.3089072 C9.47950678,10.3879648 9.60374017,10.3879648 9.68279779,10.3089072 L9.94255852,10.0547935 C10.0216161,9.97573585 10.0216161,9.84585548 9.94255852,9.76679787 L8.99951412,8.82940044 Z M13.5057981,8.82940044 L12.5627537,9.76679787 C12.4836961,9.84585548 12.4836961,9.97573585 12.5627537,10.0547935 L12.8225145,10.3089072 C12.9015721,10.3879648 13.0258055,10.3879648 13.1048631,10.3089072 L14.4488425,8.97057475 C14.4883713,8.93104595 14.5053123,8.88022319 14.5053123,8.82940044 C14.5053123,8.77857769 14.4883713,8.72210796 14.4488425,8.68257916 L13.1048631,7.34989366 C13.0258055,7.27083605 12.9015721,7.27083605 12.8225145,7.34989366 L12.5627537,7.60400742 C12.4836961,7.68306503 12.4836961,7.8129454 12.5627537,7.89200302 L13.5057981,8.82940044 Z M11.1792455,10.9978379 C11.2921849,11.0147788 11.3938304,10.9300742 11.4107714,10.8171347 L11.9077049,6.94895862 C11.9189989,6.83601917 11.8455882,6.74002064 11.7326488,6.72307972 L11.3260668,6.66096302 C11.2131273,6.6440221 11.1114818,6.72872669 11.0945409,6.84166614 L10.5976073,10.7098423 C10.5863134,10.8227817 10.659724,10.9187802 10.7726635,10.9357212 L11.1792455,10.9978379 Z" id=""></path>
        </g>
    </g>
</svg>